<svg width="15" height="15" viewBox="0 0 15 15" fill="none" xmlns="http://www.w3.org/2000/svg">
<path fill-rule="evenodd" clip-rule="evenodd" d="M2.25 3.75C2.25 3.55109 2.32902 3.36032 2.46967 3.21967C2.61032 3.07902 2.80109 3 3 3H12C12.1989 3 12.3897 3.07902 12.5303 3.21967C12.671 3.36032 12.75 3.55109 12.75 3.75C12.75 3.94891 12.671 4.13968 12.5303 4.28033C12.3897 4.42098 12.1989 4.5 12 4.5H3C2.80109 4.5 2.61032 4.42098 2.46967 4.28033C2.32902 4.13968 2.25 3.94891 2.25 3.75ZM2.25 7.5C2.25 7.30109 2.32902 7.11032 2.46967 6.96967C2.61032 6.82902 2.80109 6.75 3 6.75H12C12.1989 6.75 12.3897 6.82902 12.5303 6.96967C12.671 7.11032 12.75 7.30109 12.75 7.5C12.75 7.69891 12.671 7.88968 12.5303 8.03033C12.3897 8.17098 12.1989 8.25 12 8.25H3C2.80109 8.25 2.61032 8.17098 2.46967 8.03033C2.32902 7.88968 2.25 7.69891 2.25 7.5ZM2.25 11.25C2.25 11.0511 2.32902 10.8603 2.46967 10.7197C2.61032 10.579 2.80109 10.5 3 10.5H12C12.1989 10.5 12.3897 10.579 12.5303 10.7197C12.671 10.8603 12.75 11.0511 12.75 11.25C12.75 11.4489 12.671 11.6397 12.5303 11.7803C12.3897 11.921 12.1989 12 12 12H3C2.80109 12 2.61032 11.921 2.46967 11.7803C2.32902 11.6397 2.25 11.4489 2.25 11.25Z" fill="#EEEEEE"/>
</svg>
