<svg width="15" height="15" viewBox="0 0 15 15" fill="none" xmlns="http://www.w3.org/2000/svg">
<path fill-rule="evenodd" clip-rule="evenodd" d="M6 2.99999C5.20435 2.99999 4.44129 3.31607 3.87868 3.87867C3.31607 4.44128 3 5.20435 3 5.99999C3 6.79564 3.31607 7.55871 3.87868 8.12132C4.44129 8.68392 5.20435 9 6 9C6.79565 9 7.55871 8.68392 8.12132 8.12132C8.68393 7.55871 9 6.79564 9 5.99999C9 5.20435 8.68393 4.44128 8.12132 3.87867C7.55871 3.31607 6.79565 2.99999 6 2.99999ZM1.5 5.99999C1.49991 5.29177 1.66698 4.59353 1.98763 3.96205C2.30828 3.33057 2.77344 2.78369 3.3453 2.36589C3.91715 1.94808 4.57955 1.67115 5.27861 1.55762C5.97767 1.44409 6.69366 1.49715 7.36835 1.71251C8.04303 1.92786 8.65736 2.29942 9.16137 2.79697C9.66539 3.29451 10.0448 3.90399 10.2689 4.57584C10.4929 5.24769 10.5552 5.96294 10.4507 6.66341C10.3462 7.36388 10.0779 8.02979 9.6675 8.607L13.2803 12.2197C13.4169 12.3612 13.4925 12.5506 13.4908 12.7473C13.489 12.9439 13.4102 13.1321 13.2711 13.2711C13.1321 13.4102 12.9439 13.489 12.7473 13.4908C12.5507 13.4925 12.3612 13.4169 12.2197 13.2802L8.60775 9.66825C7.93452 10.147 7.14251 10.4311 6.31851 10.4896C5.4945 10.5481 4.6703 10.3786 3.93622 9.99972C3.20215 9.62087 2.58651 9.04727 2.15679 8.34176C1.72707 7.63625 1.49984 6.82607 1.5 5.99999Z" fill="#EEEEEE"/>
</svg>
