<svg width="13" height="12" viewBox="0 0 13 12" fill="none" xmlns="http://www.w3.org/2000/svg">
<path fill-rule="evenodd" clip-rule="evenodd" d="M6.49995 10.8C7.77299 10.8 8.99389 10.2943 9.89406 9.39411C10.7942 8.49394 11.3 7.27304 11.3 6C11.3 4.72696 10.7942 3.50606 9.89406 2.60589C8.99389 1.70571 7.77299 1.2 6.49995 1.2C5.22691 1.2 4.00601 1.70571 3.10584 2.60589C2.20566 3.50606 1.69995 4.72696 1.69995 6C1.69995 7.27304 2.20566 8.49394 3.10584 9.39411C4.00601 10.2943 5.22691 10.8 6.49995 10.8ZM8.72415 5.5758L6.92415 3.7758C6.81099 3.66651 6.65943 3.60603 6.50211 3.6074C6.34479 3.60876 6.1943 3.67186 6.08306 3.78311C5.97182 3.89435 5.90871 4.04484 5.90735 4.20216C5.90598 4.35948 5.96646 4.51104 6.07575 4.6242L6.85155 5.4H4.69995C4.54082 5.4 4.38821 5.46321 4.27569 5.57574C4.16317 5.68826 4.09995 5.84087 4.09995 6C4.09995 6.15913 4.16317 6.31174 4.27569 6.42426C4.38821 6.53679 4.54082 6.6 4.69995 6.6H6.85155L6.07575 7.3758C6.01845 7.43115 5.97274 7.49735 5.94129 7.57056C5.90984 7.64376 5.89329 7.72249 5.8926 7.80216C5.89191 7.88183 5.90709 7.96083 5.93726 8.03457C5.96743 8.10831 6.01198 8.1753 6.06831 8.23164C6.12465 8.28797 6.19164 8.33252 6.26538 8.36269C6.33912 8.39286 6.41812 8.40804 6.49779 8.40735C6.57746 8.40666 6.65619 8.39011 6.72939 8.35866C6.8026 8.32722 6.8688 8.28151 6.92415 8.2242L8.72415 6.4242C8.83663 6.31168 8.89982 6.1591 8.89982 6C8.89982 5.8409 8.83663 5.68832 8.72415 5.5758Z" fill="black"/>
</svg>
